<svg width="1080" height="1080" viewBox="0 0 1080 1080" xmlns="http://www.w3.org/2000/svg"><defs><linearGradient id="bg" x1="0" y1="0" x2="1" y2="1"><stop offset="0" stop-color="#020617"/><stop offset="0.48" stop-color="#0f172a"/><stop offset="1" stop-color="#111827"/></linearGradient><radialGradient id="orb" cx="50%" cy="50%" r="50%"><stop offset="0" stop-color="#38bdf8" stop-opacity="0.95"/><stop offset="0.45" stop-color="#818cf8" stop-opacity="0.55"/><stop offset="1" stop-color="#020617" stop-opacity="0"/></radialGradient><linearGradient id="text" x1="0" y1="0" x2="1" y2="0"><stop offset="0" stop-color="#f8fafc"/><stop offset="1" stop-color="#bae6fd"/></linearGradient><filter id="shadow" x="-30%" y="-30%" width="160%" height="160%"><feDropShadow dx="0" dy="18" stdDeviation="24" flood-color="#000000" flood-opacity="0.38"/></filter></defs><rect width="1080" height="1080" fill="url(#bg)"/><circle cx="910" cy="170" r="330" fill="url(#orb)"/><circle cx="196" cy="1000" r="230" fill="#10b981" opacity="0.10"/><g opacity="0.14"><path d="M80 0 L-180 1080" stroke="#94a3b8" stroke-width="1"/><path d="M210 0 L-50 1080" stroke="#94a3b8" stroke-width="1"/><path d="M340 0 L80 1080" stroke="#94a3b8" stroke-width="1"/><path d="M470 0 L210 1080" stroke="#94a3b8" stroke-width="1"/><path d="M600 0 L340 1080" stroke="#94a3b8" stroke-width="1"/><path d="M730 0 L470 1080" stroke="#94a3b8" stroke-width="1"/><path d="M860 0 L600 1080" stroke="#94a3b8" stroke-width="1"/><path d="M990 0 L730 1080" stroke="#94a3b8" stroke-width="1"/><path d="M1120 0 L860 1080" stroke="#94a3b8" stroke-width="1"/><path d="M1250 0 L990 1080" stroke="#94a3b8" stroke-width="1"/></g><rect x="76" y="76" width="928" height="928" rx="34" fill="rgba(15,23,42,0.62)" stroke="rgba(148,163,184,0.22)" filter="url(#shadow)"/><g transform="translate(114, 118)"><rect x="0" y="0" width="170" height="38" rx="19" fill="rgba(56,189,248,0.13)" stroke="rgba(56,189,248,0.35)"/><text x="22" y="26" fill="#7dd3fc" font-size="18" font-weight="700" font-family="Arial, sans-serif" letter-spacing="1.4">REPOREADY</text></g><text x="114" y="254" fill="url(#text)" font-size="72" font-weight="900" font-family="Arial, sans-serif">RepoReady</text><text x="118" y="326" fill="#cbd5e1" font-size="34" font-weight="500" font-family="Arial, sans-serif">AI coding agent readiness checker for GitHub</text><text x="118" y="372" fill="#cbd5e1" font-size="34" font-weight="500" font-family="Arial, sans-serif">repositories. Built for Codex, Claude Code, Cursor,</text><text x="118" y="418" fill="#cbd5e1" font-size="34" font-weight="500" font-family="Arial, sans-serif">and contributors.</text><g transform="translate(118, 759)"><rect x="0" y="0" width="844" height="86" rx="22" fill="#020617" stroke="rgba(125,211,252,0.30)"/><text x="30" y="55" fill="#e2e8f0" font-size="34" font-weight="800" font-family="Consolas, Menlo, monospace">npx @shidesheng0218/repo-ready</text></g><g transform="translate(118, 949)"><text x="0" y="0" fill="#94a3b8" font-size="26" font-weight="600" font-family="Arial, sans-serif">Open source / CLI / GitHub Action / Safe fixes</text></g></svg>